<svg xmlns="http://www.w3.org/2000/svg" xmlns:xlink="http://www.w3.org/1999/xlink" viewBox="0 0 24 24" fill="#007BFF">
  <path d="M14 2L14 9L17.123047 5.8769531C18.873631 7.3427896 20 9.530617 20 12L20 13L22 13L22 12C22 8.9898617 20.651657 6.2962133 18.539062 4.4609375L21 2L14 2 z M 7.8652344 2.8398438L6.1347656 3.8398438L7.1347656 5.5722656L8.8652344 4.5722656L7.8652344 2.8398438 z M 3.8398438 6.1347656L2.8398438 7.8652344L4.5722656 8.8652344L5.5722656 7.1347656L3.8398438 6.1347656 z M 2 11L2 12C2 15.010138 3.3483428 17.703787 5.4609375 19.539062L3 22L10 22L10 15L6.8769531 18.123047C5.1263686 16.65721 4 14.469383 4 12L4 11L2 11 z M 19.427734 15.132812L18.427734 16.865234L20.160156 17.865234L21.160156 16.132812L19.427734 15.132812 z M 16.865234 18.427734L15.134766 19.427734L16.134766 21.160156L17.865234 20.160156L16.865234 18.427734 z" fill="#007BFF" />
</svg>