<svg xmlns="http://www.w3.org/2000/svg" xmlns:xlink="http://www.w3.org/1999/xlink" viewBox="0 0 24 24" fill="#007BFF">
  <path d="M12 2C8.4698803 2 5.3751076 3.8338555 3.5957031 6.5957031L2 5L2 10L7 10L5.0546875 8.0546875C6.4299889 5.6361564 9.0193417 4 12 4C16.418 4 20 7.582 20 12C20 16.418 16.418 20 12 20C11.404 20 10.811328 19.934687 10.236328 19.804688L9.796875 21.755859C10.515875 21.917859 11.257 22 12 22C17.523 22 22 17.523 22 12C22 6.477 17.523 2 12 2 z M 11.712891 6L11.712891 7.078125C11.373891 7.121125 9.4765625 7.4775781 9.4765625 9.7675781C9.4765625 13.108578 12.935547 12.120609 12.935547 14.349609C12.935547 15.465609 12.213406 15.492188 12.066406 15.492188C11.932406 15.492188 11.052734 15.563469 11.052734 13.855469L9.1621094 13.855469C9.1621094 16.747469 11.260266 16.976531 11.572266 17.019531L11.572266 18L12.574219 18L12.574219 17.019531C12.912219 16.977531 14.824219 16.663937 14.824219 14.335938C14.824219 11.129938 11.366234 11.743344 11.365234 9.7773438C11.365234 8.6503437 11.985141 8.6152344 12.119141 8.6152344C12.364141 8.6152344 12.947266 8.830125 12.947266 10.203125L14.837891 10.203125C14.837891 7.576125 13.041703 7.1664687 12.720703 7.1054688L12.720703 6L11.712891 6 z M 2 12L2.0019531 12.158203C2.0129531 12.900203 2.1062969 13.639469 2.2792969 14.355469L4.2246094 13.888672C4.0856094 13.315672 4.0109531 12.721953 4.0019531 12.126953L4 12L2 12 z M 4.828125 15.552734L3.0371094 16.443359C3.3671094 17.104359 3.7702813 17.732641 4.2382812 18.306641L5.7890625 17.044922C5.4150625 16.584922 5.092125 16.082734 4.828125 15.552734 z M 7.0546875 18.289062L5.8164062 19.859375C6.3994063 20.318375 7.0322188 20.71325 7.6992188 21.03125L8.5605469 19.226562C8.0265469 18.971562 7.5206875 18.656063 7.0546875 18.289062 z" fill="#007BFF" />
</svg>