<svg xmlns="http://www.w3.org/2000/svg" xmlns:xlink="http://www.w3.org/1999/xlink" viewBox="0 0 24 24" fill="#007BFF">
  <path d="M3 3C2.45 3 2 3.45 2 4L2 17C2 17.55 2.45 18 3 18L3.0507812 18C3.2958204 19.692046 4.7411114 21 6.5 21C8.2588886 21 9.7041796 19.692046 9.9492188 18L14.050781 18C14.29582 19.692046 15.741111 21 17.5 21C19.258889 21 20.70418 19.692046 20.949219 18L22 18C22.55 18 23 17.55 23 17L23 12.310547C23 11.750547 22.850781 11.210469 22.550781 10.730469L20.519531 7.4296875C19.969531 6.5496875 19.000937 6 17.960938 6L14 6L14 4C14 3.45 13.55 3 13 3L3 3 z M 14 8L17.960938 8C18.310938 8 18.630547 8.1804687 18.810547 8.4804688L20.849609 11.779297C20.949609 11.939297 21 12.120547 21 12.310547L21 16L20.648438 16C20.084435 14.821937 18.891001 14 17.5 14C16.108999 14 14.915565 14.821937 14.351562 16L14 16L14 8 z M 6.5 16C7.327 16 8 16.673 8 17.5C8 18.327 7.327 19 6.5 19C5.673 19 5 18.327 5 17.5C5 16.673 5.673 16 6.5 16 z M 17.5 16C18.327 16 19 16.673 19 17.5C19 18.327 18.327 19 17.5 19C16.673 19 16 18.327 16 17.5C16 16.673 16.673 16 17.5 16 z" fill="#007BFF" />
</svg>