<svg xmlns="http://www.w3.org/2000/svg" xmlns:xlink="http://www.w3.org/1999/xlink" viewBox="0 0 24 24" fill="#007BFF">
  <path d="M11 0L11 5L10 1C10 1 5 2.199219 5 7C5 7 4 7.199219 4 9L20 9C20 7.199219 19 7 19 7C19 2.199219 14 1 14 1L13 5L13 0 Z M 5 10C5 13.84375 8.15625 17 12 17C15.84375 17 19 13.84375 19 10L17 10C17 12.753906 14.753906 15 12 15C9.246094 15 7 12.753906 7 10 Z M 7.40625 17.40625C4.40625 18.207031 2.101563 20 1 24L23 24C21.898438 20 19.59375 18.207031 16.59375 17.40625C15.195313 18.105469 13.601563 18.59375 12 18.59375C10.300781 18.59375 8.804688 18.207031 7.40625 17.40625Z" fill="#007BFF" />
</svg>